HIERARCHY
ROOT base
{
	OFFSET 0.0 0.0 0.0
	CHANNELS 6 Xposition Yposition Zposition Zrotation Yrotation Xrotation
	JOINT root
	{
		OFFSET 0 0 0
		CHANNELS 6 Xposition Yposition Zposition Zrotation Yrotation Xrotation
		JOINT chest
		{
			OFFSET 0 4.72302 0
			CHANNELS 3 Zrotation Yrotation Xrotation
			JOINT neck
			{
				OFFSET 0 4.47788 0
				CHANNELS 3 Zrotation Yrotation Xrotation
				End Site
				{
					OFFSET 0.0 0.0 0.0
				}
			}
			JOINT right_shoulder
			{
				OFFSET -0.481 4.87 3.6622
				CHANNELS 3 Zrotation Yrotation Xrotation
				JOINT right_elbow
				{
					OFFSET 0 -5.49576 0
					CHANNELS 3 Zrotation Yrotation Xrotation
					JOINT right_wrist
					{
						OFFSET 0 -5.17894 0
						CHANNELS 3 Zrotation Yrotation Xrotation
						End Site
						{
							OFFSET 0.0 0.0 0.0
						}
					}
				}
			}
			JOINT left_shoulder
			{
				OFFSET -0.481 4.87 -3.6622
				CHANNELS 3 Zrotation Yrotation Xrotation
				JOINT left_elbow
				{
					OFFSET 0 -5.49576 0
					CHANNELS 3 Zrotation Yrotation Xrotation
					JOINT left_wrist
					{
						OFFSET 0 -5.17894 0
						CHANNELS 3 Zrotation Yrotation Xrotation
						End Site
						{
							OFFSET 0.0 0.0 0.0
						}
					}
				}
			}
		}
		JOINT right_hip
		{
			OFFSET 0 0 1.69774
			CHANNELS 3 Zrotation Yrotation Xrotation
			JOINT right_knee
			{
				OFFSET 0 -8.43092 0
				CHANNELS 3 Zrotation Yrotation Xrotation
				JOINT right_ankle
				{
					OFFSET 0 -8.1974 0
					CHANNELS 3 Zrotation Yrotation Xrotation
					End Site
					{
						OFFSET 0.0 0.0 0.0
					}
				}
			}
		}
		JOINT left_hip
		{
			OFFSET 0 0 -1.69774
			CHANNELS 3 Zrotation Yrotation Xrotation
			JOINT left_knee
			{
				OFFSET 0 -8.43092 0
				CHANNELS 3 Zrotation Yrotation Xrotation
				JOINT left_ankle
				{
					OFFSET 0 -8.1974 0
					CHANNELS 3 Zrotation Yrotation Xrotation
					End Site
					{
						OFFSET 0.0 0.0 0.0
					}
				}
			}
		}
	}
	JOINT red_arrow
	{
		OFFSET 0 0 0
		CHANNELS 3 Zrotation Yrotation Xrotation
		End Site
		{
			OFFSET 0.0 0.0 0.0
		}
	}
	JOINT blue_arrow
	{
		OFFSET 0 0 0
		CHANNELS 3 Zrotation Yrotation Xrotation
		End Site
		{
			OFFSET 0.0 0.0 0.0
		}
	}
}
MOTION
Frames: 12
Frame Time: 0.0333333333333333
177.772705484927 0 -43.8880293123424 0 13.7840668810242 0 0 17.0552472829819 0 -6.37201371389668 4.46124418458118 1.06909712475575 -3.56386235649321 0.929545367105751 7.14680025791512 2.53948431328407 3.7027946498936 0.0428973389516133 -13.3216394041636 -11.181652160038 -14.1213551869383 4.9979589086451 0 0 0 0 0 9.01247944096327 -36.1487866007944 25.2969308227043 36.0064589456515 0 0 0 0 0 44.5443982461811 -10.0693453330909 -9.10786886110571 -32.2524196381778 0 0 1.88852162637516 -9.98729449251843 -2.93509693458854 -8.39104823967187 10.0460366837338 -2.39252272277412 -0.228354861779373 0 0 14.9335327048566 -14.4504725476071 -1.82025811841464 0 0 0 0 0 0
178.441011410952 0 -43.8649454593658 0 14.0010800542597 0 0 16.8898445487022 0 -7.84797717939957 4.08476265128394 0.69018005564158 -4.54811104643702 1.26082887124894 7.36882619816 2.02872038139439 4.72872985092792 0.730941301694738 -13.4863407000383 -11.8144158370453 -13.7478098285509 4.34942988563145 0 0 0 0 0 9.89398604549057 -36.3393875108494 24.9901105124223 37.7544716938924 0 0 0 0 0 41.6290204279101 -11.9686801344117 -6.65596208762283 -23.0376048156912 0 0 -0.217526390592702 -7.34809980025122 -1.94707639862037 -8.58658246749713 10.4104014027823 -1.2375079111778 -1.03315831951822 0 0 17.7265896453333 -14.3052709861231 -3.05667055019755 0 0 0 0 0 0
179.189397060871 0 -43.8365009397268 0 14.2099130694098 0 0 16.6670520067215 0 -9.20693581388965 3.91686953432589 0.252302873099609 -5.29935223860225 1.58829540163581 7.63591628783636 1.48202484083492 5.68464499282319 1.13535826633171 -13.4500790502602 -12.2002104517015 -13.2857427985447 4.10340433729347 0 0 0 0 0 10.5282060202754 -36.0006877346253 24.3256333479657 39.0460570508473 0 0 0 0 0 37.2786304344895 -13.077968765587 -3.80472421341969 -15.0614226010717 0 0 -2.9409853001593 -4.25111314251239 -2.2673115265239 -8.57952447897252 10.443896799902 0.233373255809833 -2.93691538909131 0 0 21.3489562750223 -13.9077108495103 -4.38843270537702 0 0 0 0 0 0
179.816519773006 0 -43.7344135046005 0 14.2366043193987 0 0 16.6105537176132 0 -11.6706130582059 0.49665014787457 -1.38816599409916 -5.34273242357603 4.16506924072125 8.93993763818788 0.468127272825484 6.40664800490183 1.43247693009314 -12.2385450598216 -12.2646343355819 -13.9396013860675 4.80486263061967 0 0 0 0 0 10.9746741726448 -34.7566070107411 22.8261131987357 39.7995635200831 0 0 0 0 0 36.2303752049411 -10.9873453539751 0.872691421992 -12.155899401736 0 0 -11.9227861857798 -4.32874644163364 -4.09359555348743 -6.21559192883567 11.0587598383361 2.69957962128147 -6.41372991131545 0 0 22.4588600862702 -12.3625707163149 -4.21777788623305 0 0 0 0 0 0
180.492723590136 0 -43.7074672907591 0 14.1290026688112 0 0 16.7883984565735 0 -12.4591333719153 -1.99632470618985 -1.97383856751818 -4.5057188729118 3.81686981148699 8.23682506486695 -1.3337382124242 5.43522613633234 1.25515176374486 -11.7862540089106 -10.9671181286971 -12.8720184539832 5.9554613571612 0 0 0 0 0 9.79125672328213 -33.0646897773919 20.8306133781266 39.0768304681528 0 0 0 0 0 33.4423240859181 -9.99624942247906 3.63593216425551 -10.1389411247366 0 0 -10.7066865836547 -3.54843486266976 -4.63326338506754 -4.45332658955169 11.3606863483526 3.92876076229416 -12.0819019860417 0 0 17.3367920991463 -11.5832938623141 -2.32589866480378 0 0 0 0 0 0
181.263450658321 0 -43.7074551403522 0 13.8855440125909 0 0 16.9272160887718 0 -11.6047651976404 -4.53155594041419 -2.57617283915159 -3.54101377434084 1.12946014561026 7.53785524098799 -1.6202059945789 3.75648589859661 0.578729887004282 -11.1408802688556 -2.08161177007463 -11.5250976201113 7.46387363063902 0 0 0 0 0 7.57040345820407 -27.1695699408109 19.1731598508359 37.3881584034209 0 0 0 0 0 30.198116498427 -7.83208964969277 6.08528615924557 -10.7304278228969 0 0 -7.92811286118978 -3.47682201367389 -4.85104907350057 -3.14499627601855 10.9234257216853 4.7267529108569 -19.6918929998212 0 0 11.626093963628 -10.6437986524577 1.13106442715128 0 0 0 0 0 0
182.028419244289 0 -43.7017857372761 0 13.529799176787 0 0 17.0289947390556 0 -10.1386609239644 -6.6545592085796 -3.30411728656351 -2.64127212118849 -1.19508656807327 6.54038327022883 -1.24178908861232 2.41555741300252 0.219151630927496 -10.126913876428 4.26292471091077 -10.545995078335 8.81055043966553 0 0 0 0 0 5.5115559631861 -22.326917594562 17.3191462204393 35.230525550276 0 0 0 0 0 26.8035643076976 -5.48235010437297 8.19991753671319 -11.8389077610347 0 0 -4.91750299461555 -3.66032591243691 -5.01355896863974 -0.789556546153545 9.94213011725497 5.69757385025818 -27.6305655230663 0 0 5.91744056057197 -10.8386039855448 3.35773613000072 0 0 0 0 0 0
182.76640843749 0 -43.6912284955382 0 13.1360082402394 0 0 17.102101290226 0 -8.50678685048666 -7.40063060436935 -4.13830602363925 -1.44623862147232 -3.17602675738974 5.64009929517675 -0.918700620062271 1.09424023126453 -0.237845809765539 -9.12591740958986 9.25086555019713 -10.1166921807642 10.1568575647032 0 0 0 0 0 3.53826969297994 -17.8508181805759 15.5269151880558 32.82491243403 0 0 0 0 0 23.4162580794247 -4.37316863482172 9.6072394344723 -13.2287983231663 0 0 -1.74331241255402 -3.67044234801087 -5.224591526976 3.06193856180105 9.10545877477577 7.6208235425544 -36.7979241911997 0 0 0.69798733036878 -10.9325095487745 4.10423746255726 0 0 0 0 0 0
183.459087830782 0 -43.7208539322019 0 12.721745877327 0 0 17.1524611234665 0 -6.88683161724812 -7.81489938392087 -4.61052319044291 0.0223425297794792 -4.25751731368497 4.83903381124015 -0.605381508140347 -0.00652137294615576 -0.523857008722592 -7.83762328557183 13.3109069720221 -10.1046917149938 11.3072646190612 0 0 0 0 0 1.47451947676614 -13.4359874918584 14.1820119577147 30.1977416414871 0 0 0 0 0 20.2603371844211 -3.48563416509086 10.3061332070354 -14.7407691252017 0 0 1.35244639108144 -3.49617018633354 -5.3253251728607 7.78773032575758 7.80033965351485 9.50227438341145 -47.1339640848153 0 0 -3.35270229620033 -10.6965058155095 3.52217652696529 0 0 0 0 0 0
184.107252669334 0 -43.7867413237691 0 12.2941670795118 0 0 17.1916136264801 0 -5.31606350413413 -8.08951742098183 -4.78687979146682 1.33764397568551 -4.84256994159813 4.09897190329538 -0.228425159297915 -0.911046612583059 -0.54310885769864 -6.34912286839359 16.6547025283024 -10.3463494840601 12.386456706038 0 0 0 0 0 -0.394553806098772 -9.33621875094209 13.1134817600463 27.4173458001987 0 0 0 0 0 16.9950849711692 -3.18004387373361 10.4066466929245 -15.8287584958295 0 0 4.08638842195601 -2.66200936969201 -5.32287275209366 12.5849100987496 5.88918901897416 11.107140994942 -57.7650544901972 0 0 -7.60556736119227 -10.0625275049329 2.55931244498997 0 0 0 0 0 0
184.712236561626 0 -43.8815277412534 0 11.8509930126653 0 0 17.2282172083855 0 -3.93552384720152 -8.40073516064556 -4.74404645145205 2.38571650029893 -4.98594213893276 3.4866422709991 0.138313288546631 -1.68893836521225 -0.531885583400616 -4.84636775064243 19.3051580214513 -10.8173772753282 13.7871415283791 0 0 0 0 0 -2.09446682779408 -5.92799758361442 12.2669208379579 24.3720752228973 0 0 0 0 0 13.6321002010126 -3.2488564613474 10.0764949522583 -16.171610086502 0 0 6.28665357467152 -1.28235479069629 -5.17185492150728 17.1623524553281 3.82512313989328 12.5648540579262 -67.3727400861957 0 0 -12.6014843919546 -8.95082004276984 1.3210462109756 0 0 0 0 0 0
185.272029012442 0 -44.0076332211494 0 11.3848371361125 0 0 17.2733928084373 0 -2.85840681639558 -8.8461164050665 -4.35763177060014 3.03994481369423 -4.73960507156908 2.75805134161832 0.457557488858681 -2.29162255853172 -0.465494403898689 -3.30867934976631 21.4637192930109 -11.3868548157466 15.5706354018109 0 0 0 0 0 -3.7076581683629 -3.13316360761773 11.7719572942531 21.3153760315671 0 0 0 0 0 10.3146933270489 -3.33317535622443 9.25138382765527 -15.636094227269 0 0 7.86761324501557 0.34148938291368 -4.81568802617705 21.5510630877615 2.16528101903041 13.5911876304253 -74.7148792552575 0 0 -15.6142363644855 -7.01874083452337 0.852684703320361 0 0 0 0 0 0
